<svg width="18" height="32" viewBox="0 0 18 32" fill="none" xmlns="http://www.w3.org/2000/svg">
<path fill-rule="evenodd" clip-rule="evenodd" d="M11.9909 12.3667C10.4368 8.54107 8.83467 4.59755 8.83467 0.565002C5.26429 6.73847 3.67445 12.0038 3.31964 16.3083C2.48582 15.4458 1.5401 14.123 0.541011 11.9643C0.541011 11.9643 -0.477007 20.213 1.70605 25.6658C2.81462 28.829 5.82658 31.0974 9.36835 31.0974C12.3065 31.0974 14.8801 29.5363 16.3049 27.1982C16.6375 26.7556 16.9065 26.1438 17.1159 25.4087C17.2538 24.9684 17.3552 24.512 17.4165 24.0429C18.2394 19.0993 17.1827 10.9441 15.0679 8.24997C15.0951 10.277 13.9026 12.0646 12.5842 13.8356C12.3896 13.348 12.1906 12.8583 11.9909 12.3667ZM10.672 18.7685C9.80303 16.6296 8.9073 14.4247 8.9073 12.1701C6.91109 15.6217 6.02221 18.5656 5.82383 20.9723C5.35763 20.49 4.82886 19.7504 4.27025 18.5435C4.27025 18.5435 3.70087 23.157 4.92228 26.2056C5.54255 27.9734 7.22612 29.2408 9.20573 29.2408C10.8487 29.2408 12.2878 28.3678 13.0843 27.0603C13.2697 26.8134 13.4196 26.4726 13.5365 26.0632C13.6143 25.8154 13.6714 25.5584 13.7058 25.2943C14.1651 22.5301 13.5743 17.9727 12.3923 16.4668C12.4075 17.6001 11.7408 18.5996 11.0037 19.5897C10.8949 19.3172 10.7838 19.0437 10.6722 18.769L10.672 18.7686L10.672 18.7685Z" fill="#FFFCF2"/>
</svg>
