<svg width="1253" height="1080" viewBox="0 0 1253 1080" fill="none" xmlns="http://www.w3.org/2000/svg">
<path fill-rule="evenodd" clip-rule="evenodd" d="M553.664 52.1744L476.82 -24.67L463.038 -10.8882L539.883 65.9563L553.664 52.1744ZM862.067 360.608L862.083 360.592L873.856 372.365L873.854 372.366H873.856V382.111L873.855 778.714H864.11V382.111L586.524 659.696L572.742 645.915L836.546 382.111H793.401L705.637 469.876L678.073 497.439L678.073 497.44L650.509 469.876L650.51 469.875L607.977 427.343H663.104L678.073 442.312L738.274 382.111H617.873L617.913 382.151H562.786L562.746 382.111H467.508V372.366L553 372.366L390.742 210.108L418.306 182.544L608.128 372.366L748.019 372.366L797.156 323.229L572.18 98.2532L585.961 84.4713L785.163 283.672L785.147 283.688L862.067 360.608ZM937.841 182.544L842.148 278.237L869.711 305.801L965.404 210.108L937.841 182.544ZM846.291 372.366L846.292 372.365L824.719 350.793L803.147 372.366L846.291 372.366ZM540.445 678.211L463.601 755.056L477.383 768.838L554.227 691.993L540.445 678.211ZM1074.55 100.967L997.701 177.811L970.137 150.248L1046.98 73.4031L1074.55 100.967ZM386.009 150.247L309.164 73.4029L281.601 100.967L358.445 177.811L386.009 150.247ZM313.159 372.366H421.833V382.111H313.159V372.366ZM864.11 933.063V824.389H873.855V933.063H864.11ZM37.591 528.865V474.528H-40.3711V528.865H37.591ZM37.591 754.877V551.703H-40.3711V754.877H37.591ZM337.009 754.877V474.528H254.322L254.715 567.846C254.715 589.634 255.503 611.159 257.078 632.421C251.04 618.246 241.853 600.659 229.515 579.659L168.878 474.528H83.8287V754.877H166.91L166.516 657.621C166.516 631.633 165.597 610.24 163.76 593.44C171.372 610.24 178.459 624.283 185.022 635.571L254.715 754.877H337.009ZM176.584 853.958V924.439H45.466V967.357H158.472V1033.51H45.466V1134.31H-40.3711V853.958H176.584ZM445.074 887.426C419.349 860.127 385.487 846.477 343.487 846.477C299.912 846.477 265 859.995 238.75 887.033C212.5 913.807 199.375 949.376 199.375 993.738C199.375 1038.1 212.5 1073.8 238.75 1100.84C265 1127.61 299.65 1141 342.7 1141C384.962 1141 418.955 1127.48 444.68 1100.44C470.668 1073.41 483.661 1037.97 483.661 994.132C483.661 950.032 470.799 914.464 445.074 887.426ZM301.356 935.857C311.331 922.207 324.981 915.383 342.306 915.383C359.368 915.383 372.624 922.076 382.074 935.464C391.787 948.589 396.643 966.832 396.643 990.195C396.643 1016.71 392.049 1036.92 382.862 1050.83C373.674 1064.48 360.287 1071.31 342.7 1071.31C324.85 1071.31 311.068 1064.48 301.356 1050.83C291.644 1036.92 286.787 1017.49 286.787 992.557C286.787 968.407 291.644 949.507 301.356 935.857ZM520.634 853.958H671.439C683.251 853.958 694.67 855.27 705.695 857.895C716.72 860.52 727.351 864.852 737.589 870.889C747.826 876.664 755.964 885.195 762.001 896.483C768.301 907.77 771.451 921.157 771.451 936.645C771.451 951.87 767.645 965.651 760.032 977.988C752.682 990.326 742.707 999.382 730.107 1005.16C742.707 1008.31 752.289 1016.71 758.851 1030.36C765.414 1044.01 769.482 1058.71 771.057 1074.46L773.814 1103.99C775.126 1118.95 777.489 1129.06 780.901 1134.31H695.851C693.489 1129.32 691.783 1120.53 690.733 1107.93L689.551 1092.18C688.764 1082.73 687.714 1075.11 686.401 1069.34C685.351 1063.56 683.251 1057.79 680.102 1052.01C676.952 1046.24 672.227 1042.04 665.927 1039.41C659.627 1036.79 651.62 1035.48 641.908 1035.48H605.683V1134.31H520.634V853.958ZM605.683 918.926V976.413H652.933C676.295 976.413 687.976 966.701 687.976 947.276C687.976 928.376 674.72 918.926 648.208 918.926H605.683ZM1245.33 575.268H964.984V661.105H1059.09V742.217H964.984V828.447H1245.33L1245.33 742.217H1134.69V661.105H1245.33V575.268ZM1221.31 903.964C1200.84 879.552 1171.96 866.164 1134.69 863.802V948.458C1164.61 952.92 1179.58 968.014 1179.58 993.739C1179.58 1010.54 1172.88 1023.79 1159.49 1033.51C1146.11 1042.96 1127.73 1047.68 1104.37 1047.68C1091.77 1047.68 1080.09 1046.11 1069.33 1042.96C1058.56 1039.81 1049.25 1034.03 1041.37 1025.63C1033.23 1016.97 1029.16 1006.34 1029.16 993.739C1029.16 981.664 1032.58 971.689 1039.4 963.814C1046.23 955.939 1055.94 950.82 1068.54 948.458V864.983C1037.04 867.083 1010.79 880.339 989.79 904.752C968.527 928.901 957.896 958.039 957.896 992.164C957.896 1034.16 971.94 1068.42 1000.03 1094.93C1027.85 1121.18 1062.63 1134.31 1104.37 1134.31C1146.63 1134.31 1181.81 1121.44 1209.89 1095.72C1237.98 1069.99 1252.03 1036 1252.03 993.739C1252.03 958.039 1241.79 928.114 1221.31 903.964Z" fill="#EB5E28"/>
</svg>
