<svg width="223" height="37" viewBox="0 0 223 37" fill="none" xmlns="http://www.w3.org/2000/svg">
<path d="M9.504 1.45997V8.08397H0V1.45997H9.504ZM9.504 10.868V35.636H0V10.868H9.504Z" fill="#EB5E28"/>
<path d="M46.0046 1.45997V35.636H35.9726L27.4766 21.092C26.6766 19.716 25.8126 18.004 24.8846 15.956C25.1086 18.004 25.2206 20.612 25.2206 23.78L25.2686 35.636H15.1406V1.45997H25.5086L32.9006 14.276C34.4046 16.836 35.5246 18.98 36.2606 20.708C36.0686 18.116 35.9726 15.492 35.9726 12.836L35.9246 1.45997H46.0046Z" fill="#EB5E28"/>
<path d="M78.0105 1.45997V10.052H62.0265V15.284H75.8025V23.348H62.0265V35.636H51.5625V1.45997H78.0105Z" fill="#EB5E28"/>
<path d="M98.3569 0.547974C103.477 0.547974 107.605 2.21197 110.741 5.53997C113.877 8.83597 115.445 13.172 115.445 18.548C115.445 23.892 113.861 28.212 110.693 31.508C107.557 34.804 103.413 36.452 98.2609 36.452C93.0129 36.452 88.7889 34.82 85.5889 31.556C82.3889 28.26 80.7889 23.908 80.7889 18.5C80.7889 13.092 82.3889 8.75597 85.5889 5.49197C88.7889 2.19597 93.0449 0.547974 98.3569 0.547974ZM98.2129 8.94797C96.1009 8.94797 94.4369 9.77997 93.2209 11.444C92.0369 13.108 91.4449 15.412 91.4449 18.356C91.4449 21.396 92.0369 23.764 93.2209 25.46C94.4049 27.124 96.0849 27.956 98.2609 27.956C100.405 27.956 102.037 27.124 103.157 25.46C104.277 23.764 104.837 21.3 104.837 18.068C104.837 15.22 104.245 12.996 103.061 11.396C101.909 9.76397 100.293 8.94797 98.2129 8.94797Z" fill="#EB5E28"/>
<path d="M119.952 1.45997H138.336C139.776 1.45997 141.168 1.61997 142.512 1.93997C143.856 2.25997 145.152 2.78797 146.4 3.52397C147.648 4.22797 148.64 5.26797 149.376 6.64397C150.144 8.01997 150.528 9.65197 150.528 11.54C150.528 13.396 150.064 15.076 149.136 16.58C148.24 18.084 147.024 19.188 145.488 19.892C147.024 20.276 148.192 21.3 148.992 22.964C149.792 24.628 150.288 26.42 150.48 28.34L150.816 31.94C150.976 33.764 151.264 34.996 151.68 35.636H141.312C141.024 35.028 140.816 33.956 140.688 32.42L140.544 30.5C140.448 29.348 140.32 28.42 140.16 27.716C140.032 27.012 139.776 26.308 139.392 25.604C139.008 24.9 138.432 24.388 137.664 24.068C136.896 23.748 135.92 23.588 134.736 23.588H130.32V35.636H119.952V1.45997ZM130.32 9.37997V16.388H136.08C138.928 16.388 140.352 15.204 140.352 12.836C140.352 10.532 138.736 9.37997 135.504 9.37997H130.32Z" fill="#EB5E28"/>
<path d="M187.69 22.148C187.402 26.692 185.77 30.212 182.794 32.708C179.85 35.204 176.202 36.452 171.85 36.452C166.698 36.452 162.554 34.74 159.418 31.316C156.282 27.892 154.714 23.604 154.714 18.452C154.714 13.364 156.314 9.12397 159.514 5.73197C162.746 2.30797 166.922 0.595973 172.042 0.595973C176.202 0.595973 179.754 1.89197 182.698 4.48397C185.674 7.04397 187.29 10.244 187.546 14.084H177.37C177.082 12.548 176.458 11.364 175.498 10.532C174.538 9.69997 173.322 9.28397 171.85 9.28397C170.314 9.28397 169.018 9.77997 167.962 10.772C166.938 11.732 166.234 12.868 165.85 14.18C165.466 15.492 165.274 16.916 165.274 18.452C165.274 21.3 165.85 23.54 167.002 25.172C168.186 26.804 169.802 27.62 171.85 27.62C174.986 27.62 176.826 25.796 177.37 22.148H187.69Z" fill="#EB5E28"/>
<path d="M222.864 1.45997V35.636H212.4V22.148H202.512V35.636H192V1.45997H202.512V12.932H212.4V1.45997H222.864Z" fill="#EB5E28"/>
</svg>
