<svg width="1252" height="1080" viewBox="0 0 1252 1080" fill="none" xmlns="http://www.w3.org/2000/svg">
<path fill-rule="evenodd" clip-rule="evenodd" d="M552.828 52.1744L475.984 -24.67L462.202 -10.8882L539.047 65.9563L552.828 52.1744ZM861.231 360.608L861.247 360.592L873.02 372.365L873.018 372.366H873.02V382.111L873.019 778.714H863.274V382.111L585.688 659.696L571.906 645.915L835.709 382.111H792.565L704.801 469.876L677.237 497.439L677.237 497.44L649.673 469.876L649.674 469.875L607.141 427.343H662.268L677.237 442.312L737.438 382.111H617.037L617.077 382.151H561.949L561.909 382.111H466.672V372.366L552.164 372.366L389.906 210.108L417.47 182.544L607.292 372.366L747.183 372.366L796.32 323.229L571.343 98.2532L585.125 84.4713L784.327 283.672L784.311 283.688L861.231 360.608ZM937.005 182.544L841.312 278.237L868.875 305.801L964.568 210.108L937.005 182.544ZM845.455 372.366L845.456 372.365L823.883 350.793L802.311 372.366L845.455 372.366ZM539.609 678.211L462.765 755.056L476.547 768.838L553.391 691.993L539.609 678.211ZM1073.71 100.967L996.865 177.811L969.301 150.248L1046.15 73.4031L1073.71 100.967ZM385.173 150.247L308.328 73.4029L280.765 100.967L357.609 177.811L385.173 150.247ZM312.323 372.366H420.997V382.111H312.323V372.366ZM863.274 933.063V824.389H873.019V933.063H863.274ZM36.7549 528.865V474.528H-41.2072V528.865H36.7549ZM36.7549 754.877V551.703H-41.2072V754.877H36.7549ZM336.173 754.877V474.528H253.486L253.879 567.846C253.879 589.634 254.667 611.159 256.242 632.421C250.204 618.246 241.017 600.659 228.679 579.659L168.042 474.528H82.9926V754.877H166.073L165.68 657.621C165.68 631.633 164.761 610.24 162.923 593.44C170.536 610.24 177.623 624.283 184.186 635.571L253.879 754.877H336.173ZM175.748 853.958V924.439H44.6299V967.357H157.636V1033.51H44.6299V1134.31H-41.2072V853.958H175.748ZM444.238 887.426C418.513 860.127 384.651 846.477 342.651 846.477C299.076 846.477 264.164 859.995 237.914 887.033C211.664 913.807 198.539 949.376 198.539 993.738C198.539 1038.1 211.664 1073.8 237.914 1100.84C264.164 1127.61 298.814 1141 341.863 1141C384.126 1141 418.119 1127.48 443.844 1100.44C469.832 1073.41 482.825 1037.97 482.825 994.132C482.825 950.032 469.963 914.464 444.238 887.426ZM300.52 935.857C310.495 922.207 324.145 915.383 341.47 915.383C358.532 915.383 371.788 922.076 381.238 935.464C390.951 948.589 395.807 966.832 395.807 990.195C395.807 1016.71 391.213 1036.92 382.026 1050.83C372.838 1064.48 359.451 1071.31 341.863 1071.31C324.014 1071.31 310.232 1064.48 300.52 1050.83C290.807 1036.92 285.951 1017.49 285.951 992.557C285.951 968.407 290.807 949.507 300.52 935.857ZM519.798 853.958H670.603C682.415 853.958 693.834 855.27 704.859 857.895C715.884 860.52 726.515 864.852 736.753 870.889C746.99 876.664 755.128 885.195 761.165 896.483C767.465 907.77 770.615 921.157 770.615 936.645C770.615 951.87 766.809 965.651 759.196 977.988C751.846 990.326 741.871 999.382 729.271 1005.16C741.871 1008.31 751.453 1016.71 758.015 1030.36C764.578 1044.01 768.646 1058.71 770.221 1074.46L772.977 1103.99C774.29 1118.95 776.652 1129.06 780.065 1134.31H695.015C692.653 1129.32 690.947 1120.53 689.897 1107.93L688.715 1092.18C687.928 1082.73 686.878 1075.11 685.565 1069.34C684.515 1063.56 682.415 1057.79 679.265 1052.01C676.115 1046.24 671.39 1042.04 665.091 1039.41C658.791 1036.79 650.784 1035.48 641.072 1035.48H604.847V1134.31H519.798V853.958ZM604.847 918.926V976.413H652.097C675.459 976.413 687.14 966.701 687.14 947.276C687.14 928.376 673.884 918.926 647.372 918.926H604.847ZM1244.5 575.268H964.147V661.105H1058.25V742.217H964.147V828.447H1244.5L1244.5 742.217H1133.85V661.105H1244.5V575.268ZM1220.48 903.964C1200 879.552 1171.13 866.164 1133.85 863.802V948.458C1163.78 952.92 1178.74 968.014 1178.74 993.739C1178.74 1010.54 1172.05 1023.79 1158.66 1033.51C1145.27 1042.96 1126.9 1047.68 1103.53 1047.68C1090.93 1047.68 1079.25 1046.11 1068.49 1042.96C1057.73 1039.81 1048.41 1034.03 1040.53 1025.63C1032.4 1016.97 1028.33 1006.34 1028.33 993.739C1028.33 981.664 1031.74 971.689 1038.57 963.814C1045.39 955.939 1055.1 950.82 1067.7 948.458V864.983C1036.2 867.083 1009.95 880.339 988.954 904.752C967.691 928.901 957.06 958.039 957.06 992.164C957.06 1034.16 971.104 1068.42 999.191 1094.93C1027.02 1121.18 1061.8 1134.31 1103.53 1134.31C1145.8 1134.31 1180.97 1121.44 1209.06 1095.72C1237.15 1069.99 1251.19 1036 1251.19 993.739C1251.19 958.039 1240.95 928.114 1220.48 903.964Z" fill="#FFFCF2"/>
</svg>
