<svg width="110" height="99" viewBox="0 0 110 99" fill="none" xmlns="http://www.w3.org/2000/svg">
<path fill-rule="evenodd" clip-rule="evenodd" d="M50.5746 6.99994L44.0936 0.518921L42.9312 1.68128L49.4122 8.16229L50.5746 6.99994ZM76.5851 33.013L76.5864 33.0117L77.5793 34.0046L77.5793 34.0047V34.8266L77.5793 68.2758H76.7574V34.8266L53.346 58.238L52.1836 57.0756L74.4326 34.8266H70.7938L63.3919 42.2286L63.3919 42.2286L61.0672 44.5533L61.0672 44.5533L61.0671 44.5533L58.7424 42.2286L58.7425 42.2286L55.1553 38.6414H59.8047L61.0672 39.9039L66.1444 34.8266H55.9899L55.9933 34.83H51.3439L51.3405 34.8266H43.3082V34.0047H50.5186L36.8338 20.3199L39.1585 17.9952L55.168 34.0047H66.9663L71.1105 29.8605L52.1361 10.8862L53.2985 9.72384L70.099 26.5244L70.0977 26.5256L76.5851 33.013ZM82.9758 17.9952L74.9051 26.0659L77.2298 28.3906L85.3005 20.3199L82.9758 17.9952ZM75.2545 34.0047L75.2546 34.0046L73.4352 32.1852L71.6157 34.0047H75.2545ZM49.4597 59.7995L42.9787 66.2805L44.1411 67.4429L50.6221 60.9619L49.4597 59.7995ZM94.5054 11.115L88.0244 17.596L85.6997 15.2713L92.1807 8.79031L94.5054 11.115ZM36.4346 15.2713L29.9536 8.7903L27.6289 11.115L34.1099 17.596L36.4346 15.2713ZM30.2905 34.0047H39.456V34.8266H30.2905V34.0047ZM76.7574 81.2935V72.128H77.5793V81.2935H76.7574ZM7.04928 47.2038V42.621H0.473999V47.2038H7.04928ZM7.04928 66.2654V49.1298H0.473999V66.2654H7.04928ZM32.302 66.2654V42.621H25.3282L25.3614 50.4914C25.3614 52.3289 25.4278 54.1443 25.5607 55.9376C25.0515 54.7421 24.2766 53.2588 23.2361 51.4876L18.122 42.621H10.9489V66.2654H17.9559L17.9227 58.0629C17.9227 55.8712 17.8452 54.0668 17.6903 52.6499C18.3323 54.0668 18.93 55.2513 19.4835 56.2032L25.3614 66.2654H32.302ZM18.7719 74.6219V80.5662H7.71345V84.1859H17.2443V89.7649H7.71345V98.2663H0.473999V74.6219H18.7719ZM41.4161 77.4446C39.2465 75.1421 36.3906 73.9909 32.8484 73.9909C29.1733 73.9909 26.2288 75.1311 24.0149 77.4114C21.801 79.6696 20.6941 82.6694 20.6941 86.4109C20.6941 90.1524 21.801 93.1633 24.0149 95.4436C26.2288 97.7018 29.1512 98.8308 32.7819 98.8308C36.3463 98.8308 39.2133 97.6907 41.3829 95.4104C43.5747 93.1301 44.6706 90.1413 44.6706 86.4441C44.6706 82.7247 43.5858 79.7249 41.4161 77.4446ZM29.2951 81.5292C30.1363 80.378 31.2876 79.8024 32.7487 79.8024C34.1878 79.8024 35.3058 80.3669 36.1028 81.496C36.9219 82.603 37.3315 84.1416 37.3315 86.112C37.3315 88.348 36.9441 90.0527 36.1692 91.2261C35.3943 92.3773 34.2653 92.9529 32.7819 92.9529C31.2765 92.9529 30.1142 92.3773 29.2951 91.2261C28.4759 90.0527 28.0663 88.4145 28.0663 86.3113C28.0663 84.2745 28.4759 82.6805 29.2951 81.5292ZM47.7888 74.6219H60.5076C61.5039 74.6219 62.4669 74.7326 63.3968 74.954C64.3266 75.1753 65.2232 75.5406 66.0867 76.0498C66.9501 76.5369 67.6364 77.2564 68.1456 78.2084C68.6769 79.1604 68.9426 80.2894 68.9426 81.5956C68.9426 82.8797 68.6216 84.042 67.9795 85.0825C67.3597 86.1231 66.5184 86.8869 65.4557 87.3739C66.5184 87.6396 67.3264 88.348 67.8799 89.4993C68.4334 90.6505 68.7766 91.8903 68.9094 93.2186L69.1418 95.7093C69.2525 96.9712 69.4518 97.8235 69.7396 98.2663H62.5666C62.3673 97.8457 62.2234 97.104 62.1349 96.0413L62.0352 94.713C61.9688 93.916 61.8803 93.274 61.7696 92.7869C61.681 92.2999 61.5039 91.8128 61.2382 91.3257C60.9726 90.8387 60.5741 90.4845 60.0427 90.2631C59.5114 90.0417 58.8362 89.931 58.017 89.931H54.9618V98.2663H47.7888V74.6219ZM54.9618 80.1013V84.9497H58.9468C60.9172 84.9497 61.9024 84.1306 61.9024 82.4923C61.9024 80.8983 60.7844 80.1013 58.5483 80.1013H54.9618ZM108.909 51.1173H85.265V58.3568H93.2018V65.1977H85.265V72.4704H108.909V65.1977H99.5779V58.3568H108.909V51.1173ZM106.884 78.8394C105.157 76.7804 102.722 75.6514 99.5779 75.4521V82.5919C102.102 82.9683 103.364 84.2413 103.364 86.4109C103.364 87.8278 102.799 88.9458 101.67 89.765C100.541 90.562 98.9912 90.9605 97.0208 90.9605C95.9581 90.9605 94.973 90.8276 94.0653 90.562C93.1576 90.2963 92.3716 89.8092 91.7075 89.1008C91.0212 88.3702 90.678 87.4736 90.678 86.4109C90.678 85.3925 90.9658 84.5512 91.5414 83.8871C92.117 83.2229 92.9362 82.7912 93.9988 82.5919V75.5517C91.3422 75.7288 89.1283 76.8469 87.3572 78.9058C85.5639 80.9426 84.6673 83.4 84.6673 86.2781C84.6673 89.8203 85.8517 92.7094 88.2206 94.9455C90.5673 97.1594 93.5007 98.2663 97.0208 98.2663C100.585 98.2663 103.552 97.1815 105.921 95.0119C108.29 92.8423 109.474 89.9753 109.474 86.4109C109.474 83.4 108.611 80.8762 106.884 78.8394Z" fill="#252422"/>
</svg>
