<svg width="56" height="49" viewBox="0 0 56 49" fill="none" xmlns="http://www.w3.org/2000/svg">
<circle cx="28.6889" cy="29.3111" r="7.1889" fill="#EB5E28"/>
<path fill-rule="evenodd" clip-rule="evenodd" d="M33.3603 6.93152L32.9634 8.93152H43.3486L42.9517 6.93152H33.3603ZM30.0759 0.931519C29.1214 0.931519 28.3 1.60602 28.1142 2.54228L26.5985 10.1815H4.78101C2.57187 10.1815 0.781006 11.9724 0.781006 14.1815V44.1815C0.781006 46.3907 2.57187 48.1815 4.78101 48.1815H51.531C53.7401 48.1815 55.531 46.3907 55.531 44.1815V14.1815C55.531 11.9724 53.7401 10.1815 51.531 10.1815H49.7135L48.1978 2.54228C48.0121 1.60602 47.1906 0.931519 46.2361 0.931519H30.0759ZM6.78101 16.1815V42.1815H49.531V16.1815H6.78101ZM33.531 29.1815C33.531 32.15 31.1245 34.5565 28.156 34.5565C25.1875 34.5565 22.781 32.15 22.781 29.1815C22.781 26.213 25.1875 23.8065 28.156 23.8065C31.1245 23.8065 33.531 26.213 33.531 29.1815ZM37.531 29.1815C37.531 34.3592 33.3337 38.5565 28.156 38.5565C22.9783 38.5565 18.781 34.3592 18.781 29.1815C18.781 24.0038 22.9783 19.8065 28.156 19.8065C33.3337 19.8065 37.531 24.0038 37.531 29.1815Z" fill="#252422"/>
</svg>
