<svg width="32" height="32" viewBox="0 0 32 32" fill="none" xmlns="http://www.w3.org/2000/svg">
<path fill-rule="evenodd" clip-rule="evenodd" d="M16.3889 12.3777C16.3889 14.4953 14.6723 16.2119 12.5548 16.2119C10.4373 16.2119 8.7207 14.4953 8.7207 12.3777C8.7207 10.2602 10.4373 8.54364 12.5548 8.54364C14.6723 8.54364 16.3889 10.2602 16.3889 12.3777ZM17.4304 23.164C15.9436 23.8371 14.293 24.2119 12.5548 24.2119C6.01901 24.2119 0.720703 18.9135 0.720703 12.3777C0.720703 5.84195 6.01901 0.54364 12.5548 0.54364C19.0906 0.54364 24.3889 5.84195 24.3889 12.3777C24.3889 14.2515 23.9534 16.0235 23.1782 17.5981L31.2525 25.6727L25.5956 31.3295L17.4304 23.164Z" fill="#FFFCF2"/>
</svg>
